<svg xmlns="http://www.w3.org/2000/svg" viewBox="-4 -4 32 32">
  <defs>
    <linearGradient id="g" x1="0%" y1="0%" x2="100%" y2="100%">
      <stop offset="0%" stop-color="#7c3aed"/>
      <stop offset="100%" stop-color="#4f46e5"/>
    </linearGradient>
  </defs>
  <rect x="-4" y="-4" width="32" height="32" rx="6" fill="url(#g)"/>
  <path stroke="white" stroke-linecap="round" stroke-linejoin="round" stroke-width="2" fill="none"
    d="M12 8c-1.657 0-3 .895-3 2s1.343 2 3 2 3 .895 3 2-1.343 2-3 2m0-8c1.11 0 2.08.402 2.599 1M12 8V7m0 1v8m0 0v1m0-1c-1.11 0-2.08-.402-2.599-1M21 12a9 9 0 11-18 0 9 9 0 0118 0z"/>
</svg>
